<svg xmlns="http://www.w3.org/2000/svg" width="540" height="48" class="svg-text"><path d="M39.506 2.49v4.89h-13.89v38.1h-5.82V7.38H5.846V2.49h33.66m60.97 42.99h-5.85V25.92h-23.16v19.56h-5.85V2.49h5.85v19.17h23.16V2.49h5.85v42.99m56.982-42.99v4.74h-20.64v14.28h16.71v4.56h-16.71v14.67h20.64v4.74h-26.49V2.49h26.49m81.936 6.72c-.18.3-.37.53-.57.69-.2.14-.46.21-.78.21-.34 0-.74-.17-1.2-.51-.44-.34-1.01-.71-1.71-1.11-.68-.42-1.51-.8-2.49-1.14-.96-.34-2.13-.51-3.51-.51-1.3 0-2.45.18-3.45.54-1 .34-1.84.81-2.52 1.41a5.9 5.9 0 0 0-1.5 2.13c-.34.8-.51 1.67-.51 2.61 0 1.2.29 2.2.87 3 .6.78 1.38 1.45 2.34 2.01.98.56 2.08 1.05 3.3 1.47 1.24.4 2.5.82 3.78 1.26 1.3.44 2.56.94 3.78 1.5 1.24.54 2.34 1.23 3.3 2.07.98.84 1.76 1.87 2.34 3.09.6 1.22.9 2.72.9 4.5 0 1.88-.32 3.65-.96 5.31-.64 1.64-1.58 3.07-2.82 4.29-1.22 1.22-2.73 2.18-4.53 2.88-1.78.7-3.81 1.05-6.09 1.05-2.78 0-5.32-.5-7.62-1.5-2.28-1.02-4.23-2.39-5.85-4.11l1.68-2.76c.16-.22.35-.4.57-.54.24-.16.5-.24.78-.24.42 0 .9.23 1.44.69.54.44 1.21.93 2.01 1.47.82.54 1.8 1.04 2.94 1.5 1.16.44 2.57.66 4.23.66 1.38 0 2.61-.19 3.69-.57 1.08-.38 1.99-.91 2.73-1.59a7.01 7.01 0 0 0 1.74-2.49c.4-.96.6-2.03.6-3.21 0-1.3-.3-2.36-.9-3.18-.58-.84-1.35-1.54-2.31-2.1s-2.06-1.03-3.3-1.41c-1.22-.4-2.48-.8-3.78-1.2-1.28-.42-2.54-.9-3.78-1.44-1.22-.54-2.31-1.24-3.27-2.1-.96-.86-1.74-1.93-2.34-3.21-.58-1.3-.87-2.9-.87-4.8 0-1.52.29-2.99.87-4.41.6-1.42 1.46-2.68 2.58-3.78 1.12-1.1 2.5-1.98 4.14-2.64 1.66-.66 3.56-.99 5.7-.99 2.4 0 4.59.38 6.57 1.14 1.98.76 3.71 1.86 5.19 3.3l-1.41 2.76m46.448 31.65c1.78 0 3.37-.3 4.77-.9 1.4-.6 2.58-1.44 3.54-2.52.98-1.08 1.72-2.37 2.22-3.87.52-1.5.78-3.15.78-4.95V2.49h5.79v26.13c0 2.48-.4 4.78-1.2 6.9-.78 2.12-1.91 3.96-3.39 5.52-1.46 1.54-3.25 2.75-5.37 3.63-2.12.88-4.5 1.32-7.14 1.32-2.64 0-5.02-.44-7.14-1.32-2.12-.88-3.92-2.09-5.4-3.63-1.48-1.56-2.62-3.4-3.42-5.52-.78-2.12-1.17-4.42-1.17-6.9V2.49h5.79v26.1c0 1.8.25 3.45.75 4.95.52 1.5 1.26 2.79 2.22 3.87.98 1.08 2.17 1.93 3.57 2.55 1.42.6 3.02.9 4.8.9M335.96 2.49c.52 0 .9.07 1.14.21.26.12.55.38.87.78l24.9 32.4c-.06-.52-.1-1.02-.12-1.5-.02-.5-.03-.98-.03-1.44V2.49h5.1v42.99h-2.94c-.46 0-.85-.08-1.17-.24-.3-.16-.6-.43-.9-.81l-24.87-32.37c.04.5.07.99.09 1.47.02.48.03.92.03 1.32v30.63h-5.1V2.49h3m84.372 6.72c-.18.3-.37.53-.57.69-.2.14-.46.21-.78.21-.34 0-.74-.17-1.2-.51-.44-.34-1.01-.71-1.71-1.11-.68-.42-1.51-.8-2.49-1.14-.96-.34-2.13-.51-3.51-.51-1.3 0-2.45.18-3.45.54-1 .34-1.84.81-2.52 1.41a5.9 5.9 0 0 0-1.5 2.13c-.34.8-.51 1.67-.51 2.61 0 1.2.29 2.2.87 3 .6.78 1.38 1.45 2.34 2.01.98.56 2.08 1.05 3.3 1.47 1.24.4 2.5.82 3.78 1.26 1.3.44 2.56.94 3.78 1.5 1.24.54 2.34 1.23 3.3 2.07.98.84 1.76 1.87 2.34 3.09.6 1.22.9 2.72.9 4.5 0 1.88-.32 3.65-.96 5.31-.64 1.64-1.58 3.07-2.82 4.29-1.22 1.22-2.73 2.18-4.53 2.88-1.78.7-3.81 1.05-6.09 1.05-2.78 0-5.32-.5-7.62-1.5-2.28-1.02-4.23-2.39-5.85-4.11l1.68-2.76c.16-.22.35-.4.57-.54.24-.16.5-.24.78-.24.42 0 .9.23 1.44.69.54.44 1.21.93 2.01 1.47.82.54 1.8 1.04 2.94 1.5 1.16.44 2.57.66 4.23.66 1.38 0 2.61-.19 3.69-.57 1.08-.38 1.99-.91 2.73-1.59a7.01 7.01 0 0 0 1.74-2.49c.4-.96.6-2.03.6-3.21 0-1.3-.3-2.36-.9-3.18-.58-.84-1.35-1.54-2.31-2.1s-2.06-1.03-3.3-1.41c-1.22-.4-2.48-.8-3.78-1.2-1.28-.42-2.54-.9-3.78-1.44-1.22-.54-2.31-1.24-3.27-2.1-.96-.86-1.74-1.93-2.34-3.21-.58-1.3-.87-2.9-.87-4.8 0-1.52.29-2.99.87-4.41.6-1.42 1.46-2.68 2.58-3.78 1.12-1.1 2.5-1.98 4.14-2.64 1.66-.66 3.56-.99 5.7-.99 2.4 0 4.59.38 6.57 1.14 1.98.76 3.71 1.86 5.19 3.3l-1.41 2.76m56.228-6.72v4.74h-20.64v14.28h16.71v4.56h-16.71v14.67h20.64v4.74h-26.49V2.49h26.49m57.594 0v4.89h-13.89v38.1h-5.82V7.38h-13.95V2.49h33.66" font-size="40" font-weight="400" letter-spacing="0" word-spacing="0" fill="none" stroke="#fff" font-family="Sans"/></svg>